<!--?xml version="1.0" encoding="utf-8"?-->
<!-- Generator: Adobe Illustrator 19.1.1, SVG Export Plug-In . SVG Version: 6.00 Build 0)  -->
<svg version="1.1" id="_x31_0" xmlns="http://www.w3.org/2000/svg" xmlns:xlink="http://www.w3.org/1999/xlink" x="0px" y="0px" viewBox="0 0 512 512" style="width: 256px; height: 256px; opacity: 1;" xml:space="preserve">
<style type="text/css">
	.st0{fill:#374149;}
</style>
<g>
	<path class="st0" d="M385.714,165.879c-1.863,0-3.715,0.09-5.539,0.277c-12.074-11.324-27.863-17.742-43.969-17.742
		c-5.328,0-10.531,0.675-15.539,2.011c-10.21-7.73-22.5-12.098-35.375-12.492V74.125C285.292,25.457,252.683,0,220.468,0
		c-19.035,0-37.156,8.793-49.703,24.129l-0.015,0.02c-11.082,13.598-16.942,30.878-16.942,49.976v95.325l-0.074,44.851
		c-14.562-7.629-27.301-11.375-38.606-11.375c-11.726,0-22.742,3.465-31.851,10.027c-14.832,10.676-24.418,26.434-26.992,44.364
		c-3.446,23.835,5.094,48.621,26.125,75.75l13.238,15.699c32.297,38.254,55.766,82.027,69.766,130.11l4.102,14.09
		C172.773,504.176,183.198,512,194.87,512h169.902c5.992,0,11.867-2.07,16.558-5.84l5.297-4.266
		c32.898-26.39,55.356-55.027,63.23-95.148c6.598-33.266,6.598-75.512,6.598-100.52v-57.781
		C456.457,203.687,424.058,165.879,385.714,165.879z M410.53,306.226c0,23.723,0,62.742-5.687,91.629
		c-5.973,30.157-22.973,48.977-46.926,68.219H209.503l-2-6.875c-14.363-49.43-38.949-95.289-72.172-134.606l-16.637-19.687
		c-23.664-30.5-19.242-47.039-8.617-54.68c1.379-0.922,3.043-1.378,5.05-1.378c13.528,0,40.371,20.359,60.196,37.117v0.004v38.711
		l16.195,9.32l8.054,4.726v-0.094l0.16,0.094c0,0,0-243.129,0-264.602c0-18.148,10.57-28.199,20.734-28.199
		c9.594,0,18.902,8.844,18.902,28.199v135.894h0.114v14.442v0.043v0.164h22.457v-14.649v-1.262v-10.511
		c0-10.786,8.746-19.531,19.531-19.531h1.027c10.786,0,19.535,8.746,19.535,19.531v33.168v0.102v0.16h15.508v-15.91v-4.824
		c0-3.562,0.977-6.894,2.641-9.766c3.386-5.859,9.703-9.762,16.886-9.762h1.09c8.5,0,15.738,5.398,18.383,12.976
		c0.742,2.066,1.145,4.254,1.145,6.551v9.074v20.621l-0.004,0.125h0.004v0.16h13.66h0.082h0.161c0,0-0.118-13.094,0-13.668
		c0.226-3.617,1.546-6.953,3.558-9.71c3.973-5.598,10.902-8.989,18.527-7.977c9.859,1.309,16.855,10.39,16.855,20.332V306.226z" style="fill: rgb(75, 75, 75);"></path>
</g>
</svg>
