<?xml version="1.0" encoding="iso-8859-1"?>
<!-- Uploaded to: SVG Repo, www.svgrepo.com, Generator: SVG Repo Mixer Tools -->
<!DOCTYPE svg PUBLIC "-//W3C//DTD SVG 1.1//EN" "http://www.w3.org/Graphics/SVG/1.1/DTD/svg11.dtd">
<svg height="800px" width="800px" version="1.1" id="Capa_1" xmlns="http://www.w3.org/2000/svg" xmlns:xlink="http://www.w3.org/1999/xlink" 
	 viewBox="0 0 128.233 128.233" xml:space="preserve">
<g>
	<g>
		<g>
			<path style="fill:#FFC847;" d="M79.909,87.757c-0.249,0-0.497-0.077-0.708-0.231L64.117,76.496L49.032,87.525
				c-0.42,0.306-0.989,0.308-1.411,0.004c-0.421-0.305-0.599-0.846-0.438-1.341l5.766-17.858L37.856,57.295
				c-0.419-0.307-0.594-0.848-0.433-1.341c0.161-0.494,0.621-0.828,1.141-0.828h18.646l5.765-17.852
				c0.159-0.496,0.621-0.832,1.142-0.832c0.521,0,0.982,0.336,1.142,0.832l5.765,17.852H89.67c0.52,0,0.979,0.334,1.141,0.828
				c0.161,0.494-0.014,1.035-0.433,1.341L75.285,68.33l5.766,17.858c0.16,0.495-0.018,1.037-0.438,1.341
				C80.402,87.681,80.155,87.757,79.909,87.757z M42.238,57.526l12.826,9.379c0.418,0.306,0.593,0.845,0.434,1.337l-4.895,15.162
				l12.806-9.363c0.422-0.309,0.994-0.309,1.416,0l12.805,9.363l-4.895-15.162c-0.159-0.493,0.016-1.032,0.434-1.337l12.827-9.379
				H70.149c-0.521,0-0.982-0.336-1.142-0.831l-4.891-15.146l-4.891,15.146c-0.159,0.496-0.621,0.831-1.142,0.831H42.238z"/>
		</g>
	</g>
	<g>
		<g>
			<g>
				<path style="fill:#FFC847;" d="M64.117,28.185c-0.663,0-1.2-0.538-1.2-1.2V13.089c0-0.663,0.537-1.2,1.2-1.2
					c0.663,0,1.2,0.538,1.2,1.2v13.896C65.317,27.647,64.78,28.185,64.117,28.185z"/>
			</g>
			<g>
				<path style="fill:#FFC847;" d="M64.117,8.482c-0.663,0-1.2-0.538-1.2-1.2V1.2c0-0.663,0.537-1.2,1.2-1.2
					c0.663,0,1.2,0.538,1.2,1.2v6.082C65.317,7.944,64.78,8.482,64.117,8.482z"/>
			</g>
		</g>
		<g>
			<g>
				<path style="fill:#FFC847;" d="M64.117,116.345c-0.663,0-1.2-0.538-1.2-1.2v-17.93c0-0.663,0.537-1.2,1.2-1.2
					c0.663,0,1.2,0.538,1.2,1.2v17.93C65.317,115.807,64.78,116.345,64.117,116.345z"/>
			</g>
			<g>
				<path style="fill:#FFC847;" d="M64.117,128.233c-0.663,0-1.2-0.538-1.2-1.2v-6.081c0-0.663,0.537-1.2,1.2-1.2
					c0.663,0,1.2,0.538,1.2,1.2v6.081C65.317,127.696,64.78,128.233,64.117,128.233z"/>
			</g>
		</g>
	</g>
	<g>
		<g>
			<g>
				<path style="fill:#FFC847;" d="M28.653,65.317H13.047c-0.663,0-1.2-0.538-1.2-1.2s0.537-1.2,1.2-1.2h15.606
					c0.663,0,1.2,0.538,1.2,1.2S29.316,65.317,28.653,65.317z"/>
			</g>
			<g>
				<path style="fill:#FFC847;" d="M7.271,65.317H1.228c-0.663,0-1.2-0.538-1.2-1.2s0.537-1.2,1.2-1.2h6.043
					c0.663,0,1.2,0.538,1.2,1.2S7.934,65.317,7.271,65.317z"/>
			</g>
		</g>
		<g>
			<g>
				<path style="fill:#FFC847;" d="M115.188,65.317H99.581c-0.663,0-1.2-0.538-1.2-1.2s0.537-1.2,1.2-1.2h15.606
					c0.663,0,1.2,0.538,1.2,1.2S115.851,65.317,115.188,65.317z"/>
			</g>
			<g>
				<path style="fill:#FFC847;" d="M127.006,65.317h-6.042c-0.663,0-1.2-0.538-1.2-1.2s0.537-1.2,1.2-1.2h6.042
					c0.663,0,1.2,0.538,1.2,1.2S127.669,65.317,127.006,65.317z"/>
			</g>
		</g>
	</g>
	<g>
		<g>
			<g>
				<g>
					<path style="fill:#FFC847;" d="M40.419,41.468c-0.309,0-0.616-0.118-0.852-0.354L27.814,29.286
						c-0.467-0.47-0.465-1.23,0.006-1.697c0.471-0.468,1.228-0.465,1.697,0.005l11.753,11.828c0.467,0.47,0.465,1.23-0.006,1.697
						C41.03,41.352,40.725,41.468,40.419,41.468z"/>
				</g>
				<g>
					<path style="fill:#FFC847;" d="M24.813,25.762c-0.309,0-0.616-0.118-0.852-0.354l-4.816-4.847
						c-0.467-0.47-0.465-1.23,0.006-1.697c0.472-0.468,1.229-0.465,1.697,0.005l4.816,4.847c0.467,0.47,0.465,1.23-0.006,1.697
						C25.424,25.646,25.118,25.762,24.813,25.762z"/>
				</g>
			</g>
			<g>
				<g>
					<path style="fill:#FFC847;" d="M99.568,100.994c-0.309,0-0.616-0.118-0.852-0.354L86.964,88.812
						c-0.467-0.47-0.465-1.23,0.006-1.697c0.471-0.468,1.229-0.465,1.697,0.005l11.753,11.828c0.467,0.47,0.465,1.23-0.006,1.697
						C100.18,100.878,99.874,100.994,99.568,100.994z"/>
				</g>
				<g>
					<path style="fill:#FFC847;" d="M108.238,109.719c-0.309,0-0.617-0.118-0.852-0.354l-4.816-4.848
						c-0.467-0.47-0.465-1.23,0.006-1.697c0.471-0.468,1.23-0.465,1.697,0.005l4.816,4.848c0.467,0.47,0.465,1.23-0.006,1.697
						C108.85,109.603,108.544,109.719,108.238,109.719z"/>
				</g>
			</g>
		</g>
		<g>
			<g>
				<g>
					<path style="fill:#FFC847;" d="M28.666,100.994c-0.306,0-0.611-0.116-0.846-0.349c-0.471-0.467-0.473-1.227-0.006-1.697
						L39.567,87.12c0.469-0.471,1.227-0.473,1.697-0.005c0.471,0.467,0.473,1.227,0.006,1.697L29.518,100.64
						C29.282,100.876,28.975,100.994,28.666,100.994z"/>
				</g>
				<g>
					<path style="fill:#FFC847;" d="M19.996,109.719c-0.306,0-0.611-0.116-0.846-0.349c-0.471-0.467-0.473-1.227-0.006-1.697
						l4.816-4.848c0.467-0.47,1.227-0.474,1.697-0.005c0.471,0.467,0.473,1.227,0.006,1.697l-4.816,4.848
						C20.613,109.601,20.305,109.719,19.996,109.719z"/>
				</g>
			</g>
			<g>
				<g>
					<path style="fill:#FFC847;" d="M87.815,41.468c-0.306,0-0.611-0.116-0.846-0.349c-0.471-0.467-0.473-1.226-0.006-1.697
						l11.753-11.828c0.467-0.47,1.227-0.474,1.697-0.005c0.471,0.467,0.473,1.227,0.006,1.697L88.667,41.113
						C88.432,41.35,88.124,41.468,87.815,41.468z"/>
				</g>
				<g>
					<path style="fill:#FFC847;" d="M103.422,25.762c-0.306,0-0.611-0.116-0.846-0.349c-0.471-0.467-0.473-1.227-0.006-1.697
						l4.816-4.847c0.468-0.47,1.226-0.474,1.697-0.005c0.471,0.467,0.473,1.227,0.006,1.697l-4.816,4.847
						C104.038,25.644,103.73,25.762,103.422,25.762z"/>
				</g>
			</g>
		</g>
	</g>
</g>
</svg>